<?xml version="1.0" encoding="UTF-8"?>
<svg width="16px" height="16px" viewBox="0 0 16 16" version="1.1" xmlns="http://www.w3.org/2000/svg" xmlns:xlink="http://www.w3.org/1999/xlink">
    <title>22D6405E-F596-4BA2-A2D1-547C5D6ADC94</title>
    <g id="Page-1" stroke="none" stroke-width="1" fill="none" fill-rule="evenodd">
        <g id="Bill-Voucher2" transform="translate(-1105.000000, -248.000000)" fill="#0649EE" fill-rule="nonzero">
            <g id="Group-17" transform="translate(976.000000, 197.000000)">
                <path d="M141.96875,66.71875 C142.104167,66.71875 142.263021,66.6666667 142.445312,66.5625 C142.627604,66.4583333 142.828125,66.3020833 143.046875,66.09375 C143.276042,65.8854167 143.473958,65.6953125 143.640625,65.5234375 C143.807292,65.3515625 143.942708,65.1979167 144.046875,65.0625 C144.161458,64.9270833 144.260417,64.8072917 144.34375,64.703125 C144.427083,64.5989583 144.489583,64.5104167 144.53125,64.4375 C144.635417,64.28125 144.708333,64.1276042 144.75,63.9765625 C144.791667,63.8255208 144.807292,63.6770833 144.796875,63.53125 C144.776042,63.3958333 144.734375,63.2708333 144.671875,63.15625 C144.609375,63.0416667 144.526042,62.9479167 144.421875,62.875 C143.828125,62.4583333 143.270833,62.0755208 142.75,61.7265625 C142.229167,61.3776042 141.734375,61.0625 141.265625,60.78125 C141.192708,60.7395833 141.117188,60.7083333 141.039062,60.6875 C140.960938,60.6666667 140.875,60.65625 140.78125,60.65625 C140.666667,60.65625 140.544271,60.6744792 140.414062,60.7109375 C140.283854,60.7473958 140.15625,60.8020833 140.03125,60.875 C139.927083,60.9270833 139.757812,61.0182292 139.523438,61.1484375 C139.289062,61.2786458 138.994792,61.4479167 138.640625,61.65625 C138.338542,61.4375 137.997396,61.1588542 137.617188,60.8203125 C137.236979,60.4817708 136.817708,60.0833333 136.359375,59.625 C135.911458,59.1770833 135.518229,58.7604167 135.179688,58.375 C134.841146,57.9895833 134.5625,57.640625 134.34375,57.328125 C134.541667,56.9635417 134.703125,56.6666667 134.828125,56.4375 C134.953125,56.2083333 135.041667,56.0416667 135.09375,55.9375 C135.229167,55.6979167 135.304688,55.4739583 135.320312,55.265625 C135.335938,55.0572917 135.291667,54.8697917 135.1875,54.703125 C134.78125,54.0677083 134.403646,53.4895833 134.054688,52.96875 C133.705729,52.4479167 133.385417,51.984375 133.09375,51.578125 C133,51.453125 132.888021,51.3619792 132.757812,51.3046875 C132.627604,51.2473958 132.479167,51.21875 132.3125,51.21875 C132.166667,51.21875 132.03125,51.2369792 131.90625,51.2734375 C131.78125,51.3098958 131.661458,51.3697917 131.546875,51.453125 C131.463542,51.515625 131.364583,51.5885417 131.25,51.671875 C131.135417,51.7552083 131.015625,51.84375 130.890625,51.9375 C130.755208,52.0416667 130.604167,52.1744792 130.4375,52.3359375 C130.270833,52.4973958 130.083333,52.6927083 129.875,52.921875 C129.666667,53.1510417 129.510417,53.3567708 129.40625,53.5390625 C129.302083,53.7213542 129.25,53.8854167 129.25,54.03125 C129.270833,54.5625 129.385417,55.1276042 129.59375,55.7265625 C129.802083,56.3255208 130.106771,56.953125 130.507812,57.609375 C130.908854,58.265625 131.403646,58.953125 131.992188,59.671875 C132.580729,60.390625 133.265625,61.140625 134.046875,61.921875 C134.828125,62.6927083 135.578125,63.375 136.296875,63.96875 C137.015625,64.5625 137.703125,65.0572917 138.359375,65.453125 C139.015625,65.8489583 139.640625,66.1536458 140.234375,66.3671875 C140.828125,66.5807292 141.395833,66.6979167 141.9375,66.71875 L141.9375,66.71875 L141.96875,66.71875 Z M141.9375,65.75 C141.46875,65.71875 140.966146,65.6041667 140.429688,65.40625 C139.893229,65.2083333 139.325521,64.921875 138.726562,64.546875 C138.127604,64.171875 137.497396,63.7083333 136.835938,63.15625 C136.174479,62.6041667 135.479167,61.9635417 134.75,61.234375 C134.020833,60.5052083 133.380208,59.8098958 132.828125,59.1484375 C132.276042,58.4869792 131.8125,57.8567708 131.4375,57.2578125 C131.0625,56.6588542 130.776042,56.09375 130.578125,55.5625 C130.380208,55.03125 130.270833,54.53125 130.25,54.0625 C130.28125,53.96875 130.351562,53.8541667 130.460938,53.71875 C130.570312,53.5833333 130.71875,53.421875 130.90625,53.234375 C131.09375,53.046875 131.286458,52.8671875 131.484375,52.6953125 C131.682292,52.5234375 131.885417,52.3645833 132.09375,52.21875 C132.125,52.1979167 132.158854,52.1822917 132.195312,52.171875 C132.231771,52.1614583 132.270833,52.15625 132.3125,52.15625 L132.3125,52.15625 L132.34375,52.15625 C132.645833,52.59375 132.960938,53.0625 133.289062,53.5625 C133.617188,54.0625 133.963542,54.5989583 134.328125,55.171875 C134.328125,55.2135417 134.320312,55.2604167 134.304688,55.3125 C134.289062,55.3645833 134.265625,55.421875 134.234375,55.484375 C134.182292,55.578125 134.09375,55.7369792 133.96875,55.9609375 C133.84375,56.1848958 133.682292,56.4791667 133.484375,56.84375 L133.484375,56.84375 L133.171875,57.390625 L133.546875,57.875 C133.776042,58.2083333 134.067708,58.5755208 134.421875,58.9765625 C134.776042,59.3776042 135.1875,59.8177083 135.65625,60.296875 C136.135417,60.7760417 136.575521,61.1953125 136.976562,61.5546875 C137.377604,61.9140625 137.744792,62.2083333 138.078125,62.4375 L138.078125,62.4375 L138.59375,62.78125 L139.109375,62.46875 C139.473958,62.2708333 139.770833,62.109375 140,61.984375 C140.229167,61.859375 140.385417,61.7708333 140.46875,61.71875 C140.53125,61.6875 140.588542,61.6640625 140.640625,61.6484375 C140.692708,61.6328125 140.739583,61.625 140.78125,61.625 C141.1875,61.8854167 141.643229,62.1822917 142.148438,62.515625 C142.653646,62.8489583 143.208333,63.2291667 143.8125,63.65625 C143.822917,63.6875 143.822917,63.7213542 143.8125,63.7578125 C143.802083,63.7942708 143.78125,63.8333333 143.75,63.875 C143.59375,64.0833333 143.432292,64.2890625 143.265625,64.4921875 C143.098958,64.6953125 142.921875,64.890625 142.734375,65.078125 C142.546875,65.265625 142.385417,65.4166667 142.25,65.53125 C142.114583,65.6458333 142.010417,65.71875 141.9375,65.75 Z" id="call"></path>
            </g>
        </g>
    </g>
</svg>