<?xml version="1.0" encoding="UTF-8"?>
<svg width="16px" height="16px" viewBox="0 0 16 16" version="1.1" xmlns="http://www.w3.org/2000/svg" xmlns:xlink="http://www.w3.org/1999/xlink">
    <title>938CAB17-745D-4645-985C-A69760F41F4B</title>
    <g id="Page-1" stroke="none" stroke-width="1" fill="none" fill-rule="evenodd">
        <g id="Bill-Voucher2" transform="translate(-946.000000, -1426.000000)" fill="#0649EE" fill-rule="nonzero">
            <g id="Group-16" transform="translate(71.000000, 1378.000000)">
                <g id="Group-26" transform="translate(657.000000, 45.000000)">
                    <g id="Group-25" transform="translate(218.000000, 3.000000)">
                        <path d="M13.8461322,0.75 C14.4933409,0.75 15.0256661,1.24187466 15.0896786,1.87219476 L15.0961322,2 L15.0961322,10.87257 C15.0961322,11.5629259 14.5364881,12.12257 13.8461322,12.12257 C13.1989235,12.12257 12.6665983,11.6306953 12.6025858,11.0003752 L12.5961322,10.87257 L12.5953518,4.987 L2.42221085,15.4431728 C1.94075983,15.9379416 1.14937725,15.9487379 0.654608376,15.4672869 C0.192824094,15.0179326 0.152633736,14.2985935 0.540764904,13.8024133 L0.630494262,13.6996844 L10.7993518,3.249 L4.95492399,3.25 C4.30771529,3.25 3.77539009,2.75812534 3.71137759,2.12780524 L3.70492399,2 C3.70492399,1.35279131 4.19679865,0.820466101 4.82711875,0.756453609 L4.95492399,0.75 L13.8461322,0.75 Z" id="check_now"></path>
                    </g>
                </g>
            </g>
        </g>
    </g>
</svg>