<?xml version="1.0" encoding="UTF-8"?>
<svg width="20px" height="26px" viewBox="0 0 20 26" version="1.1" xmlns="http://www.w3.org/2000/svg" xmlns:xlink="http://www.w3.org/1999/xlink">
    <title>37712E40-046E-44EC-989B-FFF167333680</title>
    <g id="Page-1" stroke="none" stroke-width="1" fill="none" fill-rule="evenodd">
        <g id="Bill-Voucher2" transform="translate(-727.000000, -1561.000000)" fill="#2AB67B" fill-rule="nonzero">
            <g id="Group-16" transform="translate(71.000000, 1378.000000)">
                <g id="Group-3" transform="translate(657.000000, 184.000000)">
                    <path d="M12.6431755,-0.5 C12.7787743,-0.5 12.9017871,-0.446015659 12.9918676,-0.358349045 C13.0034861,-0.348950174 13.0148991,-0.338590129 13.0259282,-0.32760899 L18.2237262,4.8476163 L18.2611377,4.89057797 C18.3417702,4.97935649 18.3909091,5.0972573 18.3909091,5.22663511 L18.3909091,21.3818182 C18.3909091,23.1039424 16.9948515,24.5 15.2727273,24.5 L2.61818182,24.5 C0.896057553,24.5 -0.5,23.1039424 -0.5,21.3818182 L-0.5,2.61818182 C-0.5,0.896057553 0.896057553,-0.5 2.61818182,-0.5 L12.6431755,-0.5 Z M12.144262,0.5 L2.61818182,0.5 C1.4483423,0.5 0.5,1.4483423 0.5,2.61818182 L0.5,21.3818182 C0.5,22.5516577 1.4483423,23.5 2.61818182,23.5 L15.2727273,23.5 C16.4425668,23.5 17.3909091,22.5516577 17.3909091,21.3818182 L17.3909091,5.72663511 L13.9607917,5.72663511 C12.9631949,5.72663511 12.1538752,4.91907408 12.151705,3.92147968 L12.144262,0.5 Z M7.17222786,19.1545455 C7.44837024,19.1545455 7.67222786,19.3784031 7.67222786,19.6545455 C7.67222786,19.9306878 7.44837024,20.1545455 7.17222786,20.1545455 L2.21818182,20.1545455 C1.94203944,20.1545455 1.71818182,19.9306878 1.71818182,19.6545455 C1.71818182,19.3784031 1.94203944,19.1545455 2.21818182,19.1545455 L7.17222786,19.1545455 Z M10.4967159,16.1545455 C10.7728583,16.1545455 10.9967159,16.3784031 10.9967159,16.6545455 C10.9967159,16.9306878 10.7728583,17.1545455 10.4967159,17.1545455 L2.21818182,17.1545455 C1.94203944,17.1545455 1.71818182,16.9306878 1.71818182,16.6545455 C1.71818182,16.3784031 1.94203944,16.1545455 2.21818182,16.1545455 L10.4967159,16.1545455 Z M4.556,8.752 L4.556,11.824 C4.556,11.9920008 4.52900027,12.1539992 4.475,12.31 C4.42099973,12.4660008 4.34100053,12.6029994 4.235,12.721 C4.12899947,12.8390006 3.9960008,12.9329997 3.836,13.003 C3.6759992,13.0730004 3.49000106,13.108 3.278,13.108 C2.94199832,13.108 2.66700107,13.0300008 2.453,12.874 C2.23899893,12.7179992 2.09800034,12.4700017 2.03,12.13 L2.738,11.962 C2.76200012,12.1020007 2.81899955,12.2139996 2.909,12.298 C2.99900045,12.3820004 3.10999934,12.424 3.242,12.424 C3.45800108,12.424 3.60499961,12.3510007 3.683,12.205 C3.76100039,12.0589993 3.8,11.8580013 3.8,11.602 L3.8,8.752 L4.556,8.752 Z M11.156,8.644 C11.4800016,8.644 11.7839986,8.68299961 12.068,8.761 C12.3520014,8.83900039 12.6059989,8.977999 12.83,9.178 L12.272,9.742 C12.1359993,9.60999934 11.971001,9.50800036 11.777,9.436 C11.582999,9.36399964 11.3780011,9.328 11.162,9.328 C10.9419989,9.328 10.7430009,9.36699961 10.565,9.445 C10.3869991,9.52300039 10.2340006,9.63099931 10.106,9.769 C9.97799936,9.90700069 9.87900035,10.0679991 9.809,10.252 C9.73899965,10.4360009 9.704,10.6339989 9.704,10.846 C9.704,11.0740011 9.73899965,11.283999 9.809,11.476 C9.87900035,11.668001 9.97799936,11.8339993 10.106,11.974 C10.2340006,12.1140007 10.3869991,12.2239996 10.565,12.304 C10.7430009,12.3840004 10.9419989,12.424 11.162,12.424 C11.354001,12.424 11.5349991,12.4060002 11.705,12.37 C11.8750008,12.3339998 12.0259993,12.2780004 12.158,12.202 L12.158,11.2 L11.288,11.2 L11.288,10.516 L12.914,10.516 L12.914,12.688 C12.3899974,12.9680014 11.8040032,13.108 11.156,13.108 C10.8279984,13.108 10.5270014,13.0550005 10.253,12.949 C9.97899863,12.8429995 9.74300099,12.693001 9.545,12.499 C9.34699901,12.304999 9.19200056,12.0720014 9.08,11.8 C8.96799944,11.5279986 8.912,11.2260017 8.912,10.894 C8.912,10.5539983 8.96799944,10.2450014 9.08,9.967 C9.19200056,9.68899861 9.34699901,9.45200098 9.545,9.256 C9.74300099,9.05999902 9.97899863,8.90900053 10.253,8.803 C10.5270014,8.69699947 10.8279984,8.644 11.156,8.644 Z M6.902,8.752 C7.10600102,8.752 7.30299905,8.7719998 7.493,8.812 C7.68300095,8.8520002 7.84999928,8.91899953 7.994,9.013 C8.13800072,9.10700047 8.25299957,9.23299921 8.339,9.391 C8.42500043,9.54900079 8.468,9.74599882 8.468,9.982 C8.468,10.2500013 8.42200046,10.4659992 8.33,10.63 C8.23799954,10.7940008 8.11400078,10.9209996 7.958,11.011 C7.80199922,11.1010005 7.62100103,11.1619998 7.415,11.194 C7.20899897,11.2260002 6.99400112,11.242 6.77,11.242 L6.23,11.242 L6.23,13 L5.474,13 L5.474,8.752 L6.902,8.752 Z M6.77,9.4 L6.23,9.4 L6.23,10.594 L6.686,10.594 C6.79400054,10.594 6.90599942,10.59 7.022,10.582 C7.13800058,10.574 7.24499951,10.5500002 7.343,10.51 C7.44100049,10.4699998 7.52099969,10.4100004 7.583,10.33 C7.64500031,10.2499996 7.676,10.1380007 7.676,9.994 C7.676,9.86199934 7.64800028,9.75700039 7.592,9.679 C7.53599972,9.60099961 7.46400044,9.54100021 7.376,9.499 C7.28799956,9.45699979 7.19000054,9.43000006 7.082,9.418 C6.97399946,9.40599994 6.8700005,9.4 6.77,9.4 Z M13.145,1.203 L13.1517027,3.91930429 C13.1526733,4.3654646 13.5146303,4.72663511 13.9607917,4.72663511 L16.684,4.726 L13.145,1.203 Z" id="jpg"></path>
                </g>
            </g>
        </g>
    </g>
</svg>