<?xml version="1.0" encoding="UTF-8"?>
<svg width="16px" height="12px" viewBox="0 0 16 12" version="1.1" xmlns="http://www.w3.org/2000/svg" xmlns:xlink="http://www.w3.org/1999/xlink">
    <title>EF145CD0-564D-4885-A515-298076557A4F</title>
    <g id="Page-1" stroke="none" stroke-width="1" fill="none" fill-rule="evenodd">
        <g id="Bill-Voucher2" transform="translate(-976.000000, -289.000000)" fill="#0649EE" fill-rule="nonzero">
            <g id="Group-17" transform="translate(976.000000, 197.000000)">
                <path d="M14.75,103.5 C15.1666667,103.5 15.4791667,103.3125 15.6875,102.9375 C15.8958333,102.5625 16,102.166667 16,101.75 L16,93.6875 L16,93.6875 C16,93.6666667 15.9947917,93.6458333 15.984375,93.625 C15.9947917,93.5729167 15.9973958,93.5234375 15.9921875,93.4765625 C15.9869792,93.4296875 15.9739583,93.3854167 15.953125,93.34375 C15.890625,93.0625 15.7578125,92.8515625 15.5546875,92.7109375 C15.3515625,92.5703125 15.0833333,92.5 14.75,92.5 L1.75,92.5 C1.44791667,92.5 1.15364583,92.5546875 0.8671875,92.6640625 C0.580729167,92.7734375 0.359375,92.9322917 0.203125,93.140625 C0.182291667,93.1510417 0.166666667,93.1640625 0.15625,93.1796875 C0.145833333,93.1953125 0.135416667,93.2083333 0.125,93.21875 C0.0729166667,93.28125 0.0364583333,93.3463542 0.015625,93.4140625 C-0.00520833333,93.4817708 -0.00520833333,93.5520833 0.015625,93.625 C0.00520833333,93.6458333 0,93.6666667 0,93.6875 L0,101.75 C0,102.166667 0.1875,102.5625 0.5625,102.9375 C0.9375,103.3125 1.33333333,103.5 1.75,103.5 L14.75,103.5 Z M8,98.890625 L1.265625,93.515625 C1.34895833,93.5052083 1.43229167,93.5 1.515625,93.5 L14.75,93.5 L14.75,93.5 L8,98.890625 Z M14.75,102.5 L1.75,102.5 C1.61458333,102.5 1.45572917,102.408854 1.2734375,102.226562 C1.09114583,102.044271 1,101.885417 1,101.75 L1,94.59375 L7.671875,99.921875 C7.72395833,99.9635417 7.77604167,99.9947917 7.828125,100.015625 C7.88020833,100.036458 7.9375,100.046875 8,100.046875 C8.0625,100.046875 8.11979167,100.036458 8.171875,100.015625 C8.22395833,99.9947917 8.27604167,99.9635417 8.328125,99.921875 L15,94.59375 L15,101.75 C15,101.885417 14.9921875,102.044271 14.9765625,102.226562 C14.9609375,102.408854 14.8854167,102.5 14.75,102.5 Z" id="mail"></path>
            </g>
        </g>
    </g>
</svg>