<?xml version="1.0" encoding="UTF-8"?>
<svg width="20px" height="26px" viewBox="0 0 20 26" version="1.1" xmlns="http://www.w3.org/2000/svg" xmlns:xlink="http://www.w3.org/1999/xlink">
    <title>246F8CF6-8EA1-456E-9375-AC90FEE45025</title>
    <g id="Page-1" stroke="none" stroke-width="1" fill="none" fill-rule="evenodd">
        <g id="Bill-Voucher2" transform="translate(-727.000000, -1422.000000)" fill="#FEB06A" fill-rule="nonzero">
            <g id="Group-16" transform="translate(71.000000, 1378.000000)">
                <g id="Group-3" transform="translate(657.000000, 45.000000)">
                    <path d="M12.6431755,-0.5 C12.7787743,-0.5 12.9017871,-0.446015659 12.9918676,-0.358349045 C13.0034861,-0.348950174 13.0148991,-0.338590129 13.0259282,-0.32760899 L18.2237262,4.8476163 L18.2611377,4.89057797 C18.3417702,4.97935649 18.3909091,5.0972573 18.3909091,5.22663511 L18.3909091,21.3818182 C18.3909091,23.1039424 16.9948515,24.5 15.2727273,24.5 L2.61818182,24.5 C0.896057553,24.5 -0.5,23.1039424 -0.5,21.3818182 L-0.5,2.61818182 C-0.5,0.896057553 0.896057553,-0.5 2.61818182,-0.5 L12.6431755,-0.5 Z M12.144262,0.5 L2.61818182,0.5 C1.4483423,0.5 0.5,1.4483423 0.5,2.61818182 L0.5,21.3818182 C0.5,22.5516577 1.4483423,23.5 2.61818182,23.5 L15.2727273,23.5 C16.4425668,23.5 17.3909091,22.5516577 17.3909091,21.3818182 L17.3909091,5.72663511 L13.9607917,5.72663511 C12.9631949,5.72663511 12.1538752,4.91907408 12.151705,3.92147968 L12.144262,0.5 Z M7.17222786,19.1545455 C7.44837024,19.1545455 7.67222786,19.3784031 7.67222786,19.6545455 C7.67222786,19.9306878 7.44837024,20.1545455 7.17222786,20.1545455 L2.21818182,20.1545455 C1.94203944,20.1545455 1.71818182,19.9306878 1.71818182,19.6545455 C1.71818182,19.3784031 1.94203944,19.1545455 2.21818182,19.1545455 L7.17222786,19.1545455 Z M10.4967159,16.1545455 C10.7728583,16.1545455 10.9967159,16.3784031 10.9967159,16.6545455 C10.9967159,16.9306878 10.7728583,17.1545455 10.4967159,17.1545455 L2.21818182,17.1545455 C1.94203944,17.1545455 1.71818182,16.9306878 1.71818182,16.6545455 C1.71818182,16.3784031 1.94203944,16.1545455 2.21818182,16.1545455 L10.4967159,16.1545455 Z M3.902,8.752 C4.10600102,8.752 4.30299905,8.7719998 4.493,8.812 C4.68300095,8.8520002 4.84999928,8.91899953 4.994,9.013 C5.13800072,9.10700047 5.25299957,9.23299921 5.339,9.391 C5.42500043,9.54900079 5.468,9.74599882 5.468,9.982 C5.468,10.2500013 5.42200046,10.4659992 5.33,10.63 C5.23799954,10.7940008 5.11400078,10.9209996 4.958,11.011 C4.80199922,11.1010005 4.62100103,11.1619998 4.415,11.194 C4.20899897,11.2260002 3.99400112,11.242 3.77,11.242 L3.23,11.242 L3.23,13 L2.474,13 L2.474,8.752 L3.902,8.752 Z M7.814,8.752 C8.0940014,8.752 8.3639987,8.79499957 8.624,8.881 C8.8840013,8.96700043 9.113999,9.09799912 9.314,9.274 C9.514001,9.45000088 9.6739994,9.67099867 9.794,9.937 C9.9140006,10.2030013 9.974,10.5159982 9.974,10.876 C9.974,11.2400018 9.90500069,11.5549987 9.767,11.821 C9.62899931,12.0870013 9.45100109,12.3069991 9.233,12.481 C9.01499891,12.6550009 8.77300133,12.7849996 8.507,12.871 C8.24099867,12.9570004 7.98000128,13 7.724,13 L6.14,13 L6.14,8.752 L7.814,8.752 Z M13.436,8.752 L13.436,9.436 L11.45,9.436 L11.45,10.552 L13.322,10.552 L13.322,11.236 L11.45,11.236 L11.45,13 L10.694,13 L10.694,8.752 L13.436,8.752 Z M7.586,9.436 L6.896,9.436 L6.896,12.316 L7.46,12.316 C7.69600118,12.316 7.91899895,12.2890003 8.129,12.235 C8.33900105,12.1809997 8.52199922,12.0970006 8.678,11.983 C8.83400078,11.8689994 8.95699955,11.7210009 9.047,11.539 C9.13700045,11.3569991 9.182,11.1360013 9.182,10.876 C9.182,10.6199987 9.1420004,10.4000009 9.062,10.216 C8.9819996,10.0319991 8.87100071,9.88300057 8.729,9.769 C8.58699929,9.65499943 8.41900097,9.57100027 8.225,9.517 C8.03099903,9.46299973 7.81800116,9.436 7.586,9.436 Z M3.77,9.4 L3.23,9.4 L3.23,10.594 L3.686,10.594 C3.79400054,10.594 3.90599942,10.59 4.022,10.582 C4.13800058,10.574 4.24499951,10.5500002 4.343,10.51 C4.44100049,10.4699998 4.52099969,10.4100004 4.583,10.33 C4.64500031,10.2499996 4.676,10.1380007 4.676,9.994 C4.676,9.86199934 4.64800028,9.75700039 4.592,9.679 C4.53599972,9.60099961 4.46400044,9.54100021 4.376,9.499 C4.28799956,9.45699979 4.19000054,9.43000006 4.082,9.418 C3.97399946,9.40599994 3.8700005,9.4 3.77,9.4 Z M13.145,1.203 L13.1517027,3.91930429 C13.1526733,4.3654646 13.5146303,4.72663511 13.9607917,4.72663511 L16.684,4.726 L13.145,1.203 Z" id="pdf"></path>
                </g>
            </g>
        </g>
    </g>
</svg>