<?xml version="1.0" encoding="UTF-8"?>
<svg width="20px" height="26px" viewBox="0 0 20 26" version="1.1" xmlns="http://www.w3.org/2000/svg" xmlns:xlink="http://www.w3.org/1999/xlink">
    <title>324871F0-2D86-49A0-8007-F9712E8F19F1</title>
    <g id="Page-1" stroke="none" stroke-width="1" fill="none" fill-rule="evenodd">
        <g id="Bill-Voucher2" transform="translate(-727.000000, -1491.000000)" fill="#BE52F2" fill-rule="nonzero">
            <g id="Group-16" transform="translate(71.000000, 1378.000000)">
                <g id="Group-3" transform="translate(657.000000, 114.000000)">
                    <path d="M12.6431755,-0.5 C12.7787743,-0.5 12.9017871,-0.446015659 12.9918676,-0.358349045 C13.0034861,-0.348950174 13.0148991,-0.338590129 13.0259282,-0.32760899 L18.2237262,4.8476163 L18.2611377,4.89057797 C18.3417702,4.97935649 18.3909091,5.0972573 18.3909091,5.22663511 L18.3909091,21.3818182 C18.3909091,23.1039424 16.9948515,24.5 15.2727273,24.5 L2.61818182,24.5 C0.896057553,24.5 -0.5,23.1039424 -0.5,21.3818182 L-0.5,2.61818182 C-0.5,0.896057553 0.896057553,-0.5 2.61818182,-0.5 L12.6431755,-0.5 Z M12.144262,0.5 L2.61818182,0.5 C1.4483423,0.5 0.5,1.4483423 0.5,2.61818182 L0.5,21.3818182 C0.5,22.5516577 1.4483423,23.5 2.61818182,23.5 L15.2727273,23.5 C16.4425668,23.5 17.3909091,22.5516577 17.3909091,21.3818182 L17.3909091,5.72663511 L13.9607917,5.72663511 C12.9631949,5.72663511 12.1538752,4.91907408 12.151705,3.92147968 L12.144262,0.5 Z M7.17222786,19.1545455 C7.44837024,19.1545455 7.67222786,19.3784031 7.67222786,19.6545455 C7.67222786,19.9306878 7.44837024,20.1545455 7.17222786,20.1545455 L2.21818182,20.1545455 C1.94203944,20.1545455 1.71818182,19.9306878 1.71818182,19.6545455 C1.71818182,19.3784031 1.94203944,19.1545455 2.21818182,19.1545455 L7.17222786,19.1545455 Z M10.4967159,16.1545455 C10.7728583,16.1545455 10.9967159,16.3784031 10.9967159,16.6545455 C10.9967159,16.9306878 10.7728583,17.1545455 10.4967159,17.1545455 L2.21818182,17.1545455 C1.94203944,17.1545455 1.71818182,16.9306878 1.71818182,16.6545455 C1.71818182,16.3784031 1.94203944,16.1545455 2.21818182,16.1545455 L10.4967159,16.1545455 Z M12.932,8.644 C13.2560016,8.644 13.5599986,8.68299961 13.844,8.761 C14.1280014,8.83900039 14.3819989,8.977999 14.606,9.178 L14.048,9.742 C13.9119993,9.60999934 13.747001,9.50800036 13.553,9.436 C13.358999,9.36399964 13.1540011,9.328 12.938,9.328 C12.7179989,9.328 12.5190009,9.36699961 12.341,9.445 C12.1629991,9.52300039 12.0100006,9.63099931 11.882,9.769 C11.7539994,9.90700069 11.6550004,10.0679991 11.585,10.252 C11.5149997,10.4360009 11.48,10.6339989 11.48,10.846 C11.48,11.0740011 11.5149997,11.283999 11.585,11.476 C11.6550004,11.668001 11.7539994,11.8339993 11.882,11.974 C12.0100006,12.1140007 12.1629991,12.2239996 12.341,12.304 C12.5190009,12.3840004 12.7179989,12.424 12.938,12.424 C13.130001,12.424 13.3109992,12.4060002 13.481,12.37 C13.6510009,12.3339998 13.8019993,12.2780004 13.934,12.202 L13.934,11.2 L13.064,11.2 L13.064,10.516 L14.69,10.516 L14.69,12.688 C14.1659974,12.9680014 13.5800032,13.108 12.932,13.108 C12.6039984,13.108 12.3030014,13.0550005 12.029,12.949 C11.7549986,12.8429995 11.519001,12.693001 11.321,12.499 C11.122999,12.304999 10.9680006,12.0720014 10.856,11.8 C10.7439994,11.5279986 10.688,11.2260017 10.688,10.894 C10.688,10.5539983 10.7439994,10.2450014 10.856,9.967 C10.9680006,9.68899861 11.122999,9.45200098 11.321,9.256 C11.519001,9.05999902 11.7549986,8.90900053 12.029,8.803 C12.3030014,8.69699947 12.6039984,8.644 12.932,8.644 Z M3.902,8.752 C4.10600102,8.752 4.30299905,8.7719998 4.493,8.812 C4.68300095,8.8520002 4.84999928,8.91899953 4.994,9.013 C5.13800072,9.10700047 5.25299957,9.23299921 5.339,9.391 C5.42500043,9.54900079 5.468,9.74599882 5.468,9.982 C5.468,10.2500013 5.42200046,10.4659992 5.33,10.63 C5.23799954,10.7940008 5.11400078,10.9209996 4.958,11.011 C4.80199922,11.1010005 4.62100103,11.1619998 4.415,11.194 C4.20899897,11.2260002 3.99400112,11.242 3.77,11.242 L3.23,11.242 L3.23,13 L2.474,13 L2.474,8.752 L3.902,8.752 Z M7.142,8.752 L9.2,11.908 L9.212,11.908 L9.212,8.752 L9.968,8.752 L9.968,13 L9.008,13 L6.908,9.742 L6.896,9.742 L6.896,13 L6.14,13 L6.14,8.752 L7.142,8.752 Z M3.77,9.4 L3.23,9.4 L3.23,10.594 L3.686,10.594 C3.79400054,10.594 3.90599942,10.59 4.022,10.582 C4.13800058,10.574 4.24499951,10.5500002 4.343,10.51 C4.44100049,10.4699998 4.52099969,10.4100004 4.583,10.33 C4.64500031,10.2499996 4.676,10.1380007 4.676,9.994 C4.676,9.86199934 4.64800028,9.75700039 4.592,9.679 C4.53599972,9.60099961 4.46400044,9.54100021 4.376,9.499 C4.28799956,9.45699979 4.19000054,9.43000006 4.082,9.418 C3.97399946,9.40599994 3.8700005,9.4 3.77,9.4 Z M13.145,1.203 L13.1517027,3.91930429 C13.1526733,4.3654646 13.5146303,4.72663511 13.9607917,4.72663511 L16.684,4.726 L13.145,1.203 Z" id="png"></path>
                </g>
            </g>
        </g>
    </g>
</svg>